<?xml version="1.0"?>
<svg xmlns="http://www.w3.org/2000/svg" xmlns:xlink="http://www.w3.org/1999/xlink" viewBox="0 0 512 512" width="512" height="512"><linearGradient id="a" gradientUnits="userSpaceOnUse" x1="256" x2="256" y1="34" y2="483.782"><stop offset="0" stop-color="#00efd1"/><stop offset="1" stop-color="#00acea"/></linearGradient><g fill="url(#a)"><path d="m354.517 311h-47.517v-123.029c0-5.523-4-9.971-9.519-9.971h-82.962c-5.519 0-9.519 4.448-9.519 9.971v123.029h-47.517a9.9 9.9 0 0 0 -7 17l98.517 96.526a10.01 10.01 0 0 0 14-.017l98.517-96.55a9.875 9.875 0 0 0 -7-16.959zm-98.517 92.545-74.026-72.545h32.545c5.523 0 10.481-4.663 10.481-10.186v-122.814h62v122.814c0 5.523 4.958 10.186 10.481 10.186h32.545z"/><path d="m214.519 167h82.962a10 10 0 0 0 0-20h-82.962a10 10 0 0 0 0 20z"/><path d="m214.519 136h82.962a10 10 0 0 0 0-20h-82.962a10 10 0 0 0 0 20z"/><path d="m214.519 105h82.962a10 10 0 0 0 0-20h-82.962a10 10 0 0 0 0 20z"/></g></svg>
