<?xml version="1.0"?>
<svg xmlns="http://www.w3.org/2000/svg" xmlns:xlink="http://www.w3.org/1999/xlink" viewBox="0 0 512 512" width="512" height="512"><linearGradient id="a" gradientUnits="userSpaceOnUse" x1="256" x2="256" y1="34" y2="483.782"><stop offset="0" stop-color="#00efd1"/><stop offset="1" stop-color="#00acea"/></linearGradient><linearGradient id="b" x1="256" x2="256" xlink:href="#a" y1="34" y2="483.782"/><path d="m263 87.447a10 10 0 0 0 -14 0l-98.518 96.6a9.873 9.873 0 0 0 7 16.954h47.518v123.028a9.763 9.763 0 0 0 9.753 9.96l82.722.011a9.412 9.412 0 0 0 6.829-2.886 9.688 9.688 0 0 0 2.696-7.033v-123.081h47.518a9.9 9.9 0 0 0 7-17zm34.48 93.553c-5.522 0-10.48 4.663-10.48 10.186v122.888l-62-.039v-122.849c0-5.523-4.958-10.186-10.481-10.186h-32.554l74.035-72.594 74.035 72.594z" fill="url(#a)"/><g fill="url(#b)"><path d="m297.486 345.122-82.961-.122h-.006a10.06 10.06 0 0 0 -10 10.063 9.949 9.949 0 0 0 9.994 9.946l82.962-.009a9.939 9.939 0 1 0 .006-19.878z"/><path d="m297.486 376.177-82.961-.177h-.006a10.108 10.108 0 0 0 -10 10.119 9.924 9.924 0 0 0 9.994 9.917l82.962-.036a9.912 9.912 0 1 0 .006-19.823z"/><path d="m297.486 407.232-82.961-.232h-.006a10.156 10.156 0 0 0 -10 10.174 9.9 9.9 0 0 0 9.994 9.89l82.962-.064a9.885 9.885 0 1 0 .006-19.768z"/></g></svg>
